<svg xmlns="http://www.w3.org/2000/svg" width="64" height="64" viewBox="0 0 64 64" fill="none" role="img" aria-label="Open Brain favicon">
	<rect width="64" height="64" rx="14" fill="#EEF2FF" />
	<path
		d="M20 14C14.477 14 10 18.477 10 24c0 6.075 5.373 11 12 11h5v3c0 2.206 1.794 4 4 4h14c2.206 0 4-1.794 4-4v-3h5c6.627 0 12-4.925 12-11S48.627 14 42 14H20Z"
		fill="#0EA5E9"
	/>
	<path
		d="M12 24a8 8 0 0 1 8-8h20a8 8 0 0 1 8 8v1h4.2c4.25 0 7.8 2.9 7.8 6.75S48.45 38.5 44.2 38.5H40l-4 8h-18l-4-8h-4.2A8 8 0 0 1 12 24Z"
		fill="#0F172A"
	/>
	<path
		d="M24 44.5h16"
		stroke="#0EA5E9"
		stroke-width="2"
		stroke-linecap="round"
		opacity="0.65"
	/>
	<g fill="#1D4ED8">
		<circle cx="22" cy="20" r="3" />
		<circle cx="42" cy="20" r="3" />
		<circle cx="18" cy="32" r="2.5" />
		<circle cx="46" cy="32" r="2.5" />
		<circle cx="32" cy="38" r="3" />
	</g>
	<g stroke="#1D4ED8" stroke-width="1.5" stroke-linecap="round">
		<line x1="22" y1="20" x2="32" y2="38" />
		<line x1="42" y1="20" x2="32" y2="38" />
		<line x1="18" y1="32" x2="27" y2="26" />
		<line x1="46" y1="32" x2="37" y2="26" />
		<line x1="18" y1="32" x2="32" y2="38" />
		<line x1="46" y1="32" x2="32" y2="38" />
	</g>
</svg>
